
<?xml version="1.0" standalone="no"?>
<!DOCTYPE svg PUBLIC "-//W3C//DTD SVG 20010904//EN" "http://www.w3.org/TR/2001/REC-SVG-20010904/DTD/svg10.dtd">
<svg version="1.0" xmlns="http://www.w3.org/2000/svg" viewBox="0 0 1280.000000 320.000000" preserveAspectRatio="xMidYMid meet">
<metadata>
Created by potrace 1.15, written by Peter Selinger 2001-2017
</metadata>
<g transform="translate(0.000000,320.000000) scale(0.100000,-0.100000)"
stroke="none">
<path d="M1126 2858 c-19 -40 -42 -80 -52 -90 -11 -9 -48 -22 -84 -29 -122
-23 -127 -40 -40 -122 33 -31 61 -62 62 -69 1 -7 2 -53 3 -103 0 -108 6 -112
93 -60 75 43 110 44 193 5 48 -23 66 -27 81 -19 14 7 18 18 15 32 -36 156 -35
169 27 235 85 92 81 106 -29 117 -38 4 -81 13 -95 20 -15 8 -42 44 -65 84 -51
94 -66 94 -109 -1z"/>
<path d="M11293 2884 c-3 -8 -1 -43 4 -77 13 -77 6 -98 -54 -159 -28 -28 -44
-52 -40 -61 3 -8 26 -17 54 -21 94 -13 111 -24 139 -79 28 -55 52 -87 65 -87
5 0 25 31 44 70 38 75 40 76 155 97 61 11 63 33 9 81 -59 52 -69 81 -56 165
14 91 6 97 -71 58 -76 -38 -98 -39 -172 -1 -69 35 -69 35 -77 14z"/>
<path d="M6726 2871 c-3 -5 -1 -32 4 -61 21 -111 17 -129 -50 -195 -33 -33
-60 -65 -60 -71 0 -21 28 -35 92 -45 34 -5 74 -15 86 -21 13 -7 42 -45 64 -86
28 -51 45 -72 57 -70 9 2 33 35 54 74 41 76 59 90 130 100 69 10 107 24 107
41 0 9 -28 45 -61 80 l-62 64 6 62 c3 34 9 77 13 94 10 50 -14 52 -106 9 -87
-41 -89 -41 -182 5 -60 30 -83 35 -92 20z"/>
<path d="M4203 2748 l6 -72 -52 -48 c-46 -42 -50 -49 -37 -62 8 -8 40 -20 70
-28 52 -12 56 -16 83 -68 36 -72 52 -80 75 -39 39 72 58 87 123 94 37 4 63 13
66 21 3 7 -14 35 -37 61 -39 45 -42 51 -36 93 3 25 8 54 11 65 3 11 1 26 -4
34 -8 12 -19 10 -71 -13 l-61 -28 -59 31 c-33 17 -65 31 -71 31 -9 0 -10 -20
-6 -72z"/>
<path d="M5390 2758 c0 -24 5 -62 10 -85 13 -57 1 -86 -68 -156 l-57 -58 22
-19 c13 -10 48 -21 80 -25 82 -9 103 -24 148 -107 22 -40 47 -73 55 -73 8 0
31 32 52 70 42 81 69 101 147 111 111 13 115 32 30 121 l-62 64 6 52 c4 29 10
71 13 94 9 61 -11 65 -96 19 -37 -20 -78 -36 -91 -36 -12 0 -53 16 -90 35 -90
46 -99 46 -99 -7z"/>
<path d="M3297 2697 c-51 -54 -94 -90 -112 -95 -17 -5 -73 -4 -126 1 -53 6
-104 7 -113 4 -27 -11 -18 -49 34 -137 62 -107 63 -130 9 -246 -34 -75 -38
-92 -29 -113 12 -26 21 -26 154 3 38 8 83 12 99 9 17 -4 57 -32 96 -68 84 -79
104 -90 125 -69 9 8 16 18 16 20 0 61 25 204 40 224 10 14 56 47 103 73 47 26
88 55 91 63 16 41 6 51 -81 90 -49 21 -98 44 -110 52 -26 16 -45 66 -68 174
-25 117 -32 118 -128 15z"/>
<path d="M5020 2725 c-14 -7 -103 -94 -198 -194 -259 -270 -271 -274 -639
-212 -133 23 -253 41 -266 41 -37 0 -68 -30 -68 -65 1 -85 13 -119 122 -332
113 -220 114 -223 117 -300 3 -76 2 -80 -46 -179 -28 -56 -55 -105 -61 -108
-12 -8 -41 44 -41 73 0 11 18 55 41 97 24 47 39 87 37 103 -3 24 -7 26 -48 25
-25 0 -77 -4 -117 -9 l-71 -8 -81 77 c-44 42 -84 76 -90 76 -18 0 -29 -32 -41
-118 -8 -52 -20 -91 -32 -108 -11 -13 -55 -43 -98 -64 -43 -22 -81 -44 -85
-50 -15 -25 10 -52 83 -89 42 -21 85 -48 95 -59 11 -12 24 -55 34 -109 23
-136 39 -143 127 -54 68 68 102 86 148 77 60 -11 63 -18 34 -74 -30 -59 -32
-87 -10 -131 32 -63 66 -65 358 -15 325 56 338 51 601 -206 187 -184 213 -201
266 -180 41 17 56 59 79 230 11 85 30 195 41 245 39 174 86 222 366 364 111
56 211 113 221 125 10 13 24 43 32 66 24 73 15 80 -248 210 -348 172 -355 181
-408 537 -18 126 -41 247 -50 271 -22 60 -55 75 -104 47z"/>
<path d="M9340 2615 c-96 -97 -114 -103 -249 -80 -56 9 -108 14 -116 11 -27
-10 -16 -65 30 -153 58 -109 58 -131 -1 -243 -57 -108 -56 -140 4 -139 20 0
70 6 111 13 92 17 125 9 175 -43 38 -39 39 -40 15 -45 -102 -21 -132 -30 -154
-48 -29 -23 -31 -42 -9 -108 17 -51 53 -90 268 -285 109 -98 146 -148 172
-233 18 -55 18 -60 -9 -272 -15 -118 -27 -235 -27 -260 0 -54 29 -107 64 -116
39 -9 86 11 265 114 215 124 257 141 347 142 87 0 126 -13 349 -118 94 -44
184 -83 201 -86 64 -14 114 33 114 107 0 30 -22 143 -80 406 -32 145 8 242
177 422 65 69 141 151 170 182 57 62 73 64 93 16 24 -56 7 -110 -95 -312 -90
-177 -97 -195 -85 -218 36 -69 61 -72 270 -34 273 50 308 39 510 -159 146
-144 169 -161 207 -151 36 9 48 49 78 244 41 275 61 302 304 426 174 88 208
113 217 160 12 64 5 70 -192 166 -104 50 -201 104 -223 125 -63 56 -79 101
-112 321 -32 212 -44 245 -93 251 -23 3 -49 -20 -189 -161 -218 -221 -220
-222 -547 -167 -189 32 -222 31 -235 -9 -10 -33 5 -89 51 -185 24 -50 40 -92
35 -94 -4 -1 -119 8 -254 22 -226 22 -252 27 -311 54 -35 17 -81 48 -103 69
-22 23 -85 125 -153 248 -119 217 -153 265 -190 265 -42 0 -75 -53 -175 -280
-83 -189 -107 -233 -147 -276 -56 -59 -127 -96 -218 -113 -36 -7 -76 -15 -89
-18 -23 -6 -24 -5 -19 56 6 82 25 105 138 167 98 53 123 81 99 110 -7 9 -51
35 -98 59 -119 59 -129 73 -147 186 -17 111 -27 139 -52 139 -9 0 -51 -34 -92
-75z"/>
<path d="M8241 2615 c-53 -31 -87 -31 -146 -3 -40 19 -47 20 -55 8 -6 -8 -8
-21 -5 -27 2 -7 7 -35 11 -63 6 -49 5 -52 -36 -101 -23 -27 -40 -56 -37 -63 3
-8 30 -17 66 -21 65 -7 84 -22 124 -95 9 -17 22 -30 29 -28 7 3 26 31 43 64
29 57 32 59 85 72 30 8 62 20 70 28 13 14 9 20 -35 59 l-50 44 3 75 c3 87 0
89 -67 51z"/>
<path d="M10720 2584 l-45 -46 -72 7 c-69 5 -73 5 -73 -15 0 -11 12 -42 27
-69 24 -43 26 -53 16 -78 -6 -15 -17 -42 -24 -59 -21 -53 -11 -62 64 -51 l65
10 49 -42 c71 -59 74 -58 87 44 5 41 18 55 86 99 19 12 35 28 35 36 0 8 -26
28 -58 44 -50 26 -58 34 -68 70 -29 112 -29 112 -89 50z"/>
<path d="M2346 2575 c-13 -14 -67 -124 -121 -245 -53 -121 -110 -238 -127
-260 -38 -54 -136 -116 -201 -129 -29 -6 -137 -26 -242 -46 -104 -20 -205 -42
-223 -50 -44 -20 -54 -50 -36 -113 18 -61 40 -85 229 -254 157 -141 190 -184
221 -287 16 -55 15 -71 -27 -376 -23 -162 -19 -204 22 -241 42 -38 84 -25 271
84 220 127 241 137 312 152 91 19 152 2 384 -106 230 -107 273 -116 311 -67
42 52 43 40 -44 453 -24 112 -26 130 -15 175 22 87 57 141 177 270 172 184
198 217 217 276 20 60 15 93 -17 113 -15 10 -108 24 -277 41 -384 39 -392 44
-571 369 -63 115 -126 221 -141 237 -33 36 -71 38 -102 4z"/>
<path d="M7467 2499 c-33 -25 -37 -41 -86 -315 -43 -245 -60 -292 -134 -366
-43 -43 -121 -87 -133 -75 -13 13 9 45 52 78 82 61 78 86 -18 108 -69 15 -91
36 -113 103 -20 60 -38 84 -55 73 -6 -4 -27 -31 -46 -61 -19 -29 -43 -58 -53
-64 -11 -5 -48 -10 -83 -10 -98 0 -104 -17 -36 -103 43 -55 45 -72 21 -157
-23 -84 -14 -91 75 -61 115 40 104 17 -20 -41 -66 -32 -121 -64 -127 -76 -14
-26 -14 -69 -1 -77 6 -3 10 -15 10 -25 0 -30 66 -77 237 -169 197 -105 242
-136 287 -198 51 -71 73 -154 100 -386 25 -214 34 -245 77 -268 47 -25 89 3
264 171 260 250 293 260 630 191 213 -43 278 -49 309 -26 25 19 46 62 46 93 0
15 -50 129 -111 255 -158 325 -158 329 5 615 109 193 120 216 135 285 11 50
11 61 -3 82 -9 14 -28 28 -42 31 -14 4 -139 -9 -277 -29 -282 -40 -307 -39
-412 13 -51 25 -86 57 -234 219 -112 123 -184 194 -204 200 -37 13 -30 15 -60
-10z"/>
<path d="M1927 2473 c-3 -5 -26 -19 -51 -31 l-45 -23 -62 26 c-37 16 -65 23
-71 17 -5 -5 -4 -35 3 -75 l12 -65 -42 -51 c-24 -28 -41 -57 -38 -65 3 -8 29
-17 66 -21 65 -7 84 -22 124 -95 9 -17 23 -30 30 -28 6 3 24 30 39 61 26 54
29 57 90 75 79 23 84 40 26 91 l-43 39 0 73 c0 61 -3 74 -17 77 -9 2 -18 -1
-21 -5z"/>
<path d="M562 2413 c-15 -27 -21 -65 -36 -225 -22 -221 -31 -234 -249 -356
-79 -44 -149 -88 -156 -96 -20 -24 -5 -82 27 -104 15 -11 83 -43 151 -73 210
-90 234 -118 281 -345 36 -173 43 -192 74 -200 37 -9 55 6 171 135 158 178
182 187 430 156 65 -8 130 -15 143 -15 28 0 72 45 72 74 0 12 -40 90 -90 175
-90 154 -110 212 -95 263 4 12 36 86 70 163 68 151 82 203 65 235 -15 28 -45
26 -228 -15 -234 -53 -248 -49 -442 130 -95 88 -131 115 -152 115 -16 0 -31
-7 -36 -17z"/>
<path d="M6063 2374 c-3 -8 0 -40 6 -71 20 -99 17 -109 -49 -177 -33 -35 -60
-70 -60 -80 0 -20 29 -32 103 -41 72 -9 96 -28 138 -110 44 -86 61 -84 110 9
41 78 60 92 142 101 31 4 67 15 79 25 l22 17 -64 67 c-70 73 -70 75 -55 198
10 87 0 91 -94 44 -39 -20 -80 -36 -91 -36 -11 0 -52 16 -90 35 -78 39 -88 41
-97 19z"/>
<path d="M6187 1628 c-14 -18 -48 -71 -77 -118 -102 -166 -121 -177 -335 -188
-132 -7 -160 -11 -170 -25 -24 -33 -1 -82 85 -184 85 -101 119 -159 120 -203
0 -14 -16 -91 -37 -171 -36 -142 -37 -147 -20 -172 10 -15 27 -27 39 -27 12 0
77 22 145 50 129 52 190 62 250 39 15 -5 75 -41 133 -79 128 -83 142 -88 170
-60 21 21 22 27 15 188 l-7 167 29 42 c15 23 74 78 131 123 142 114 165 175
74 199 -20 5 -84 22 -141 36 -57 14 -116 32 -131 40 -52 27 -85 79 -134 211
-27 71 -55 137 -64 147 -23 26 -48 21 -75 -15z"/>
<path d="M8946 1527 c-24 -51 -55 -102 -69 -114 -16 -12 -57 -25 -104 -33 -43
-7 -88 -19 -100 -26 -33 -21 -15 -59 57 -123 87 -76 93 -90 79 -206 -9 -74 -9
-98 1 -110 18 -22 25 -20 112 31 48 28 91 46 112 47 19 0 71 -16 121 -38 l87
-39 18 22 c17 21 17 25 -2 113 -11 50 -17 102 -13 116 3 14 35 56 70 93 50 53
65 76 65 99 0 33 10 30 -143 49 -91 11 -103 20 -153 111 -43 77 -62 101 -81
101 -8 0 -33 -42 -57 -93z"/>
<path d="M1250 1078 c1 -18 4 -51 9 -74 10 -53 0 -79 -57 -137 -60 -61 -53
-77 41 -93 36 -6 73 -17 82 -24 9 -8 30 -40 46 -72 16 -32 36 -58 44 -58 7 0
29 28 47 62 36 70 57 84 138 95 82 12 86 31 21 97 -59 59 -60 66 -47 174 10
75 5 77 -84 32 -33 -16 -66 -30 -75 -30 -9 0 -42 14 -75 30 -77 39 -90 39 -90
-2z"/>
<path d="M4425 835 c-49 -31 -81 -31 -140 -3 -59 29 -72 18 -56 -46 17 -68 14
-81 -29 -131 -22 -25 -40 -50 -40 -54 0 -17 27 -31 62 -31 56 0 83 -17 113
-71 34 -64 57 -65 80 -4 23 58 42 74 107 89 70 15 73 34 13 90 l-46 44 3 68
c4 81 -5 87 -67 49z"/>
<path d="M10109 708 c-1 -7 0 -39 1 -72 2 -57 1 -59 -45 -106 -28 -28 -45 -54
-42 -62 3 -8 30 -20 61 -27 64 -14 68 -17 104 -86 15 -27 32 -50 37 -49 6 0
24 22 41 47 41 63 35 59 107 72 78 14 83 30 27 91 -33 36 -41 51 -36 70 14 54
18 112 8 118 -5 3 -36 -6 -68 -21 l-58 -26 -61 32 c-66 35 -74 37 -76 19z"/>
</g>
</svg>
