<svg viewBox="0 0 1279 312" fill="none" xmlns="http://www.w3.org/2000/svg">
<path d="M1262.5 6.10004C1236.4 16.5 1197.3 31 1174.5 38.6C1103.2 62.3 1064.2 73.9 1012.5 86.5C877.9 119.5 752.2 135.1 619 135.4C573.9 135.4 561.8 135.1 521.5 132.7C460 129 448.7 128.1 411 123.4C338.1 114.4 267.7 101.2 192.5 82.4C163.8 75.2 159 73.8 96.9 54.4C68 45.4 43.7 38 42.9 38C42.1 38 32.5 34.8 21.6 31C10.6 27.1 1.19997 24 0.599966 24C-2.00003 24.1 3.79997 26.4 23.2 33.1L43.8 40.2L44.8 45.9C45.3 49 51.8 92.5 59.1 142.7C69.6 214.2 72.8 233.7 73.7 232.7C74.4 232 104.8 199.5 141.4 160.5L207.8 89.5L201.6 87.2C194.3 84.5 195.3 84.7 224 91.5C236.4 94.4 250.4 97.6 255.3 98.5C268.3 101.2 265.1 101.4 250.6 98.9C243.7 97.7 237.7 96.9 237.5 97.2C237.2 97.5 239.9 107.6 243.4 119.6C247 131.6 259.4 173.9 271 213.5C282.6 253.1 292.2 285.6 292.4 285.7C293 286.3 296.6 281.2 351 203.6L406.4 124.7L413.4 125.4C425.2 126.4 443 128.6 443.4 129.1C443.6 129.3 446.9 137.1 450.7 146.5C459.3 167.2 515.2 301.9 517.5 307.4L519.1 311.3L532.6 286.9C540 273.5 561.7 234.3 580.7 199.7L615.4 137H639.1H662.7L711.6 222.5C740.6 273.3 760.7 307.5 761.1 306.7C761.5 306.1 777.9 265.2 797.5 216C817.1 166.8 833.4 125.9 833.7 125.1C834.2 124 833.3 123.9 829.4 124.3C826.7 124.7 820.9 125.1 816.5 125.4C808.5 125.8 808.5 125.8 819 124.4C828.1 123.1 868.9 117.1 879 115.5L882.5 115L879 116.1C877.1 116.7 875.4 117.3 875.2 117.5C874.8 117.9 992.9 273.4 993.9 273.8C994.2 273.9 996.4 266.7 998.7 257.8C1013.6 199 1039.5 96.3 1041 90.5C1041.9 86.6 1042.6 83.3 1042.4 83.1C1042.3 83 1034.2 84.4 1024.5 86.5C1014.8 88.5 1006.6 90 1006.4 89.8C1006.2 89.5 1011.5 88.1 1018.3 86.5C1025 85 1041 80.8 1053.9 77.3C1066.8 73.9 1077.4 71 1077.5 71C1077.9 71 1209.3 209 1211.2 211.4C1212.1 212.5 1213.1 213.2 1213.4 212.9C1213.7 212.6 1218.7 178.2 1224.4 136.5C1230.2 94.7 1236.2 51 1237.9 39.5C1239.5 27.9 1240.6 18.3 1240.4 18.1C1240.3 17.9 1238 18.5 1235.4 19.4C1232.8 20.3 1230.5 20.8 1230.3 20.7C1230.2 20.5 1240.8 16.2 1254 11C1267.2 5.90004 1278 1.30004 1278 0.900044C1278 -0.199956 1280 -0.899956 1262.5 6.10004Z"/>
</svg>
